<svg xmlns="http://www.w3.org/2000/svg" xmlns:xlink="http://www.w3.org/1999/xlink" version="1.1" x="0px" y="0px" viewBox="-734 315 451 451" xml:space="preserve" class="style0"><style>.style0{enable-background:	new -734 315 451 451;}</style><style type="text/css">.st0{fill:#FFFFFF;}</style><g><g><path class="st0" d="M-534.8 469.8h13.5l5.9 2.2l3.5 3.5l2.1 4.4l0.9 4.4v6.8l-0.9 4.5l-2.2 4.5l-3.5 3.5l-5.9 2.2h-13.5V469.8z M-522.4 500.8l3.8-1.7l2.2-2.3l1.5-2.9l1.1-3.6v-5.1l-1.1-3.5l-1.6-3l-2.2-2.3l-3.7-1.6h-7.4v26H-522.4z"/><path class="st0" d="M-481.9 496.8h-12.7l-3.2 9h-5.9l13.3-36h4.3l13.3 36h-5.9L-481.9 496.8z M-492.7 491.8h8.9l-4.4-12.7 L-492.7 491.8z"/><path class="st0" d="M-450.1 469.8h6.6l-11.4 18.6v17.4h-6v-17.4l-11.8-18.6h6.6l8 13.3L-450.1 469.8z"/></g><g><path class="st0" d="M-662.2 669.3c-66-78.6-62-196.3 11.9-270.2s191.6-77.9 270.2-11.9l17.2-17.2 c-40.6-34.8-91.8-53.8-145.8-53.8c-60 0-116.3 23.4-158.7 65.8c-42.4 42.4-65.8 98.8-65.8 158.7c0 54.1 19 105.2 53.8 145.8 L-662.2 669.3z"/></g><g><polygon points="-379.4,500.8 -376.1,499.3 -373.9,497.2 -372.4,494.2 -371.7,490.9 -371.7,484.6 -372.4,481.3 -373.9,478.5 -376.1,476.3 -379.4,474.8 -383,474.8 -386.2,476.3 -388.4,478.5 -389.9,481.3 -390.6,484.7 -390.6,490.9 -389.9,494 -388.4,497.1 -386.2,499.3 -382.9,500.8"/><path d="M-338 395.1l-74.5 74.7h9.7v5h-15.5l-0.5 1.3v7.7h12v6h-12v16h-6v-24l-51.2 51.3l13.2 19v-26.3h5v37h-5.3l0-0.3 l-17.4-25.3l-0.3 0v25.5h-5v-19.7l-168.5 168.3c40.6 34.8 91.6 53.8 145.7 53.8c60 0 116.3-23.4 158.7-65.8 c42.4-42.4 65.7-98.7 65.7-158.6C-284.2 486.7-303.2 435.7-338 395.1z M-438.8 562.8h-6v-37h6V562.8z M-399.8 550.5l-0.7 3.1 l-2.3 3.8l-3.7 3.2l-4.6 2.1l-6 0l-5.5-2.4l-3.6-3.6l-2.2-4.6l-1-4.4l0-7.6l1-4.5l2.2-4.5l3.7-3.6l5.4-2.4l5.7 0l5.5 2l2.4 1.8 l2.6 3.1l-0.1 0.1l-4.2 3.7l-2-2.5l-1.6-1.3l-3.5-1.2h-3.7l-3.2 1.5l-2.2 2.3l-1.5 2.9l-0.7 3.3l0 6.2l0.7 3.3l1.5 3l2.1 2 l3.2 1.4h3.8l2.6-1.1l2.1-1.7l1.4-2.3l0.4-1.4l0-1.5h-9v-6h15V550.5z M-393.2 500.6l-2.3-4.6l-1-4.4l0-7.6l1-4.5l2.2-4.5l3.7-3.6 l5.4-2.4l5.9 0l5.4 2.4l3.7 3.6l2.2 4.5l1 4.5l0 7.6l-1 4.4l-2.2 4.6l-3.5 3.6l-5.6 2.4l-5.9 0l-5.5-2.4L-393.2 500.6z M-362.8 562.8h-6v-17h-15v17h-5v-37h5v14h15v-14h6V562.8z M-356.8 469.4l15.6 0l4.8 1.2l0 0l3.9 3.9l0 0l1.5 5.4l0 0l-1.4 5.2 l-2.6 3.9l-2.4 1l7 15.7h-6.4l0 0.2l-6.3-14.2h-7.6v14h-6V469.4z M-330.8 531.8h-9v31h-6v-31h-9v-6h24V531.8z"/><polygon points="-339,484.6 -337.8,482.8 -337,480.2 -337.7,477.7 -339.5,475.8 -342.2,474.8 -350.8,474.8 -350.8,485.8 -341.6,485.8"/></g><path class="st0" d="M-662.2 669.3c-66-78.6-62-196.3 11.9-270.2s191.6-77.9 270.2-11.9l17.2-17.2c-40.6-34.8-91.8-53.8-145.8-53.8 c-60 0-116.3 23.4-158.7 65.8c-42.4 42.4-65.8 98.8-65.8 158.7c0 54.1 19 105.2 53.8 145.8L-662.2 669.3z"/></g></svg>