<svg version="1.1" id="Layer_1" xmlns="http://www.w3.org/2000/svg" xmlns:xlink="http://www.w3.org/1999/xlink" x="0px" y="0px"
	 width="190px" height="190px" viewBox="0 0 190 190" style="enable-background:new 0 0 190 190;" xml:space="preserve">
<title>DAY FOR NIGHT</title>
<path id="d" d="M83.9,64.8h5.6l2.4,0.9l1.4,1.5l0.9,1.8l0.4,1.8v2.8l-0.4,1.8l-0.9,1.8l-1.4,1.5l-2.4,0.9h-5.6V64.8z
	 M89.1,77.5l1.5-0.7l0.9-0.9l0.6-1.2l0.4-1.4v-2.1l-0.4-1.4l-0.6-1.2l-0.9-0.9L89.1,67h-2.9v10.4L89.1,77.5z M106.1,76h-5.2
	l-1.3,3.7h-2.4l5.4-14.9h1.7l5.4,14.9h-2.4L106.1,76z M101.7,73.7h3.6l-1.8-5.2L101.7,73.7z M119.7,64.8h2.7l-4.8,7.7v7.2h-2.3v-7.2
	l-4.8-7.7h2.7l3.3,5.4L119.7,64.8z"/>
<path id="half" d="M167.6,33.7L33.7,167.6c40.1,33.8,100,28.8,133.9-11.3C197.5,120.9,197.5,69.1,167.6,33.7z"/>
<path id="fn" d="M133.1,67v3.6h4.9v2.3h-4.9v6.8h-2.3V64.8h9.1V67H133.1z M147.7,79.9l-2.2-1l-1.4-1.4l-0.9-1.9
	l-0.4-1.8v-3.1l0.4-1.8l0.9-1.8l1.5-1.5l2.2-1h2.4l2.2,1l1.5,1.5l0.9,1.8l0.4,1.8v3.1l-0.4,1.8l-0.9,1.9l-1.4,1.4l-2.3,1L147.7,79.9
	z M148.2,77.6h1.4L151,77l0.9-0.9l0.6-1.2l0.3-1.4V71l-0.3-1.4l-0.6-1.2l-0.9-0.9l-1.3-0.6h-1.5l-1.3,0.6l-0.9,0.9l-0.6,1.2L145,71
	v2.6l0.3,1.3l0.7,1.3l0.9,0.9L148.2,77.6z M165.8,64.8l2,0.5l1.6,1.6l0.6,2.2l-0.6,2.1l-1.1,1.6l-1,0.5l2.9,6.4h-2.5l-2.6-6h-3.3v6
	h-2.3V64.8L165.8,64.8z M161.7,71.5h4l1.1-0.5l0.5-0.7l0.3-1.1l-0.3-1.1l-0.8-0.7l-1.1-0.3h-3.7L161.7,71.5z M104.7,88.8h1.9
	l7.5,10.9V88.8h2.3v14.9h-2.2L107,93.3v10.5h-2.3L104.7,88.8z M124.4,103.7h-2.3V88.8h2.3V103.7z M137.6,91.9l-0.7-0.5l-1.4-0.5H134
	l-1.3,0.6l-0.9,0.9l-0.6,1.2l-0.3,1.4v2.6l0.3,1.4l0.6,1.2l0.9,0.9l1.3,0.6h1.6l1.1-0.5l0.9-0.7l0.6-1l0.1-0.6v-0.7h-3.5v-2.2h5.8
	v3.1l-0.2,1.3l-0.9,1.6l-1.5,1.3l-1.9,0.8h-2.4l-2.2-1l-1.4-1.4l-0.9-1.9l-0.4-1.8v-3.1l0.4-1.8l0.9-1.8l1.5-1.5l2.2-1h2.3l2.2,0.8
	l1,0.8l1,1.2l-1.7,1.5L137.6,91.9z M154.2,94.7v-5.9h2.3v14.9h-2.3v-6.8h-5.9v6.8H146V88.8h2.3v5.9L154.2,94.7z M166.1,103.7h-2.3
	V91H160v-2.2h10V91h-3.9L166.1,103.7z"/>
<path id="stroke" d="M31.2,150.3C0.6,115.1,4.4,61.7,39.6,31.2c31.8-27.6,79-27.6,110.7,0l7.5-7.5
	C118.4-11,58.4-7.2,23.7,32.2c-31.6,35.9-31.6,89.7,0,125.6L31.2,150.3z"/>
<path id="dropped" d="M148.2,77.6l-1.4-0.6l-0.9-0.9l-0.7-1.3l-0.3-1.3V71l0.3-1.4l0.6-1.2l0.9-0.9l1.3-0.6h1.5l1.3,0.6l0.9,0.9
	l0.6,1.2l0.3,1.4v2.6l-0.3,1.4l-0.6,1.2L151,77l-1.4,0.6H148.2z M166.8,71l0.5-0.7l0.3-1.1l-0.3-1l-0.8-0.7l-1.1-0.3h-3.7v4.5h4
	L166.8,71z M161.9,162.1c-35.2,35.2-91.1,37-128.5,5.4l71.3-71.3v7.5h2.3v-9.8l0.3-0.3l6.9,10.1h2.2V88.8h-2.3v10.9l-5.3-7.6l22-22
	v9.6h2.3v-6.8h4.9v-2.3h-4.9v-2.9l0.8-0.8h6.1v-2.2h-3.8l31.2-31.2C198.9,70.9,197.1,126.9,161.9,162.1z M124.4,88.8h-2.3v14.9h2.3
	V88.8z M140.5,95.9h-5.8v2.2h3.5v0.7l-0.1,0.6l-0.6,1l-0.9,0.7l-1.1,0.5H134l-1.3-0.6l-0.9-0.9l-0.6-1.2l-0.3-1.4V95l0.3-1.4
	l0.6-1.2l0.9-0.9l1.3-0.6h1.5l1.4,0.5l0.7,0.5l0.8,1l1.7-1.5l-1-1.2l-1-0.8l-2.2-0.8h-2.3l-2.2,1l-1.5,1.5l-0.9,1.8l-0.4,1.8v3.1
	l0.4,1.8l0.9,1.9l1.4,1.4l2.2,1h2.4l1.9-0.8l1.5-1.3l0.9-1.6l0.2-1.3V95.9z M145.4,78.9l2.2,1h2.4l2.3-1l1.4-1.4l0.9-1.9l0.4-1.8
	v-3.1l-0.4-1.8l-0.9-1.8l-1.5-1.5l-2.2-1h-2.4l-2.2,1l-1.5,1.5l-0.9,1.8l-0.4,1.8v3.1l0.4,1.8l0.9,1.9L145.4,78.9z M156.5,88.8h-2.3
	v5.9h-5.9v-5.9H146v14.9h2.3v-6.8h5.9v6.8h2.3V88.8z M159.4,79.7h2.3v-6h3.3l2.6,6h2.5l-2.9-6.4l1-0.5l1.1-1.6l0.6-2.1l-0.6-2.2
	l-1.6-1.6l-2-0.5h-6.3V79.7z M170,88.8h-10V91h3.8v12.7h2.3V91h3.9V88.8z"/>
</svg>
