<?xml version="1.0" encoding="utf-8"?>
<!-- Generator: Adobe Illustrator 20.0.0, SVG Export Plug-In . SVG Version: 6.00 Build 0)  -->
<!DOCTYPE svg PUBLIC "-//W3C//DTD SVG 1.1//EN" "http://www.w3.org/Graphics/SVG/1.1/DTD/svg11.dtd">
<svg version="1.1" id="Layer_1" xmlns="http://www.w3.org/2000/svg" xmlns:xlink="http://www.w3.org/1999/xlink" x="0px" y="0px"
	 width="36px" height="36px" viewBox="0 0 36 36" style="enable-background:new 0 0 36 36;" xml:space="preserve">
<path id="twitter" d="M5.9,25c0.1-0.1,0.2-0.1,0.3-0.1l0.6,0c0.3,0,0.5,0,0.6,0c1.8,0,3.4-0.5,4.9-1.4c-0.9-0.2-1.7-0.6-2.3-1.2
	c-0.7-0.6-1.1-1.4-1.4-2.2l0-0.1c0-0.1,0.1-0.2,0.1-0.3s0.2-0.1,0.3-0.1h0c0,0,0,0,0.1,0c0,0,0.1,0,0.1,0l0.1,0
	c-0.8-0.5-1.4-1.1-1.8-1.9c-0.5-0.8-0.7-1.6-0.7-2.5c0-0.1,0-0.2,0.1-0.3s0.2-0.1,0.3-0.1s0.3,0,0.5,0.1L8,15.1
	c-0.8-0.9-1.2-2-1.2-3.3c0-0.5,0-0.9,0.2-1.4c0.1-0.5,0.3-0.9,0.5-1.2C7.6,9,7.7,9,7.9,9C8,9,8.1,9,8.2,9.1c0.7,0.7,1.2,1.2,1.4,1.5
	c1.1,1,2.3,1.7,3.6,2.3s2.7,0.9,4.1,1c0-0.2-0.1-0.4-0.1-0.6c0-1.4,0.5-2.6,1.5-3.7c1-1,2.3-1.5,3.7-1.5c1.4,0,2.7,0.5,3.7,1.5
	c0.8-0.2,1.7-0.5,2.7-1c0.1-0.1,0.1-0.1,0.2-0.1c0.1,0,0.2,0,0.3,0.1c0.1,0.1,0.1,0.2,0.1,0.3c0,0.2-0.1,0.5-0.4,0.9s-0.5,0.8-0.7,1
	c0,0,0.1,0,0.2-0.1s0.3-0.1,0.4-0.1l0.4-0.1c0.1-0.1,0.3-0.1,0.3-0.1s0.2,0,0.3,0.1c0.1,0.1,0.1,0.2,0.1,0.3c0,0.1,0,0.1-0.1,0.2
	c-0.6,0.9-1.3,1.7-2.3,2.4v0.4c0,1-0.1,2-0.4,3.1c-0.3,1.1-0.6,2.1-1.1,3.2c-0.5,1.1-1.2,2.1-2,3.1c-0.9,1-1.8,1.8-2.9,2.5
	c-2.3,1.5-4.9,2.2-7.7,2.2c-2.3,0-4.4-0.5-6.5-1.6C6.6,26,6.2,25.8,6,25.7c-0.1-0.1-0.2-0.2-0.2-0.3C5.8,25.2,5.9,25.1,5.9,25z"/>
<path id="facebook" d="M12.3,13.8h2.5v-2.5c0-1.8,0.4-3.2,1.3-4.1c0.8-0.9,2.2-1.4,4.2-1.4h3.4V10h-2.1c-0.4,0-0.7,0.1-0.9,0.1
	c-0.2,0.1-0.4,0.2-0.5,0.3C20,10.6,20,10.8,19.9,11c0,0.2-0.1,0.4-0.1,0.7v2.1h3.8L23.2,18h-3.4v12.2h-5V18h-2.5V13.8z"/>
<path id="spotify" d="M29.1,18c0,2-0.5,3.9-1.5,5.6s-2.3,3.1-4.1,4.1c-1.7,1-3.6,1.5-5.6,1.5c-2,0-3.9-0.5-5.6-1.5
	c-1.7-1-3.1-2.4-4-4.1S6.9,20,6.9,18c-0.1-2,0.5-3.9,1.5-5.6s2.4-3.1,4-4.1c1.6-1,3.5-1.5,5.6-1.5c2.1,0,4,0.5,5.6,1.5
	c1.6,1,3,2.4,4.1,4.1S29.2,16,29.1,18z M26.2,15.8c0-0.5-0.2-0.8-0.6-1c-1.2-0.7-2.6-1.2-4.2-1.6c-1.6-0.4-3.3-0.5-5-0.5
	c-2,0-3.7,0.2-5.3,0.7c-0.2,0.1-0.4,0.2-0.5,0.4s-0.2,0.4-0.2,0.7s0.1,0.5,0.3,0.7s0.5,0.3,0.7,0.3c0.1,0,0.3,0,0.6-0.1
	c1.3-0.4,2.8-0.5,4.4-0.5c1.5,0,3,0.2,4.5,0.5s2.7,0.8,3.7,1.4c0.2,0.1,0.4,0.2,0.6,0.2c0.3,0,0.5-0.1,0.7-0.3
	C26.1,16.4,26.2,16.1,26.2,15.8z M24.6,19.4c0-0.4-0.2-0.7-0.5-0.9c-2.3-1.4-4.9-2.1-8-2.1c-1.5,0-2.9,0.2-4.4,0.6
	C11.3,17.2,11,17.5,11,18c0,0.2,0.1,0.4,0.3,0.6c0.2,0.2,0.4,0.2,0.6,0.3c0.1,0,0.2,0,0.5-0.1c1.2-0.3,2.4-0.5,3.7-0.5
	c2.7,0,5,0.6,7.1,1.8c0.2,0.1,0.4,0.2,0.5,0.2c0.2,0,0.5-0.1,0.6-0.3C24.5,19.9,24.6,19.7,24.6,19.4z M23.2,22.5
	c0-0.3-0.1-0.6-0.4-0.7c-1.9-1.1-4-1.7-6.5-1.7c-1.3,0-2.7,0.2-4.2,0.5c-0.4,0.1-0.6,0.3-0.6,0.8c0,0.2,0.1,0.4,0.2,0.5
	c0.1,0.1,0.3,0.2,0.5,0.2c0,0,0.2,0,0.5-0.1c1.3-0.3,2.5-0.4,3.5-0.4c2.2,0,4.1,0.5,5.7,1.5c0.2,0.1,0.4,0.2,0.5,0.2
	s0.3-0.1,0.4-0.2C23.1,22.9,23.2,22.7,23.2,22.5z"/>
<path id="soundcloud" d="M1.8,19.5l0.3,1.8l-0.3,1.8c0,0.1-0.1,0.1-0.1,0.1c-0.1,0-0.1,0-0.1-0.1l-0.3-1.8l0.3-1.8
	c0-0.1,0.1-0.1,0.1-0.1S1.8,19.5,1.8,19.5z M3,18.4l0.4,3L3,24.3c0,0.1-0.1,0.1-0.2,0.1c-0.1,0-0.1,0-0.1-0.1l-0.3-2.9l0.3-3
	c0-0.1,0-0.1,0.1-0.1C3,18.3,3,18.3,3,18.4z M4.4,17.8l0.4,3.6l-0.4,3.4c0,0.1-0.1,0.2-0.2,0.2c-0.1,0-0.2-0.1-0.2-0.2l-0.3-3.4
	L4,17.8c0-0.1,0.1-0.2,0.2-0.2C4.3,17.7,4.4,17.7,4.4,17.8z M5.7,17.7l0.3,3.7l-0.3,3.5c0,0.1-0.1,0.2-0.2,0.2
	c-0.1,0-0.2-0.1-0.2-0.2l-0.3-3.5l0.3-3.7c0-0.1,0.1-0.2,0.2-0.2C5.6,17.5,5.7,17.6,5.7,17.7z M7.1,18l0.3,3.4L7.1,25
	c0,0.2-0.1,0.2-0.2,0.2c-0.1,0-0.1,0-0.2-0.1c-0.1,0-0.1-0.1-0.1-0.2l-0.3-3.6L6.7,18c0-0.1,0-0.1,0.1-0.2c0,0,0.1-0.1,0.2-0.1
	C7,17.8,7.1,17.9,7.1,18z M8.5,15.9l0.3,5.5L8.5,25c0,0.1,0,0.1-0.1,0.2c-0.1,0.1-0.1,0.1-0.2,0.1C8.1,25.2,8,25.1,8,25l-0.3-3.6
	L8,15.9c0-0.2,0.1-0.3,0.3-0.3c0.1,0,0.1,0,0.2,0.1C8.4,15.8,8.4,15.8,8.5,15.9z M9.8,14.6l0.3,6.8L9.8,25c0,0.1,0,0.2-0.1,0.2
	c-0.1,0.1-0.1,0.1-0.2,0.1c-0.2,0-0.3-0.1-0.3-0.3L9,21.4l0.2-6.8c0-0.2,0.1-0.3,0.3-0.3c0.1,0,0.2,0,0.2,0.1
	C9.8,14.5,9.8,14.6,9.8,14.6z M11.2,14.1l0.3,7.3l-0.3,3.5c0,0.2-0.1,0.3-0.3,0.3c-0.2,0-0.3-0.1-0.3-0.3l-0.2-3.5l0.2-7.3
	c0-0.1,0-0.2,0.1-0.2c0.1-0.1,0.1-0.1,0.2-0.1s0.2,0,0.2,0.1S11.3,14,11.2,14.1z M12.7,24.9l0.2-3.5l-0.2-7.6c0-0.1-0.1-0.2-0.1-0.2
	c-0.1-0.1-0.1-0.1-0.2-0.1c-0.1,0-0.2,0-0.2,0.1C12,13.6,12,13.7,12,13.8l-0.2,7.6l0.2,3.5c0,0.1,0.1,0.2,0.1,0.2
	c0.1,0.1,0.1,0.1,0.2,0.1C12.5,25.2,12.6,25.1,12.7,24.9z M14.1,14l0.2,7.4l-0.2,3.5c0,0.1,0,0.2-0.1,0.3c-0.1,0.1-0.2,0.1-0.2,0.1
	s-0.2,0-0.3-0.1c-0.1-0.1-0.1-0.1-0.1-0.3l-0.2-3.5l0.2-7.4c0-0.1,0-0.2,0.1-0.3s0.2-0.1,0.3-0.1c0.1,0,0.2,0,0.2,0.1
	S14,13.8,14.1,14z M15.5,14.3l0.2,7.1l-0.2,3.4c0,0.1,0,0.2-0.1,0.3c-0.1,0.1-0.2,0.1-0.3,0.1c-0.1,0-0.2-0.1-0.3-0.1
	c-0.1-0.1-0.1-0.1-0.1-0.3l-0.2-3.4l0.2-7.1c0-0.1,0.1-0.2,0.1-0.3c0.1-0.1,0.2-0.1,0.3-0.1c0.1,0,0.2,0,0.3,0.1L15.5,14.3z
	 M17,24.5l0.2-3l-0.2-8.5c0-0.2-0.1-0.3-0.2-0.4c-0.1-0.1-0.2-0.1-0.2-0.1c-0.1,0-0.1,0-0.2,0.1c-0.1,0.1-0.2,0.2-0.2,0.4l0,0.1
	l-0.1,8.4l0.2,3.4c0,0.1,0,0.2,0.1,0.3c0.1,0.1,0.2,0.2,0.3,0.2s0.2,0,0.3-0.1c0.1-0.1,0.1-0.2,0.1-0.3L17,24.5z M18.6,21.4
	l-0.2,3.4c0,0.1,0,0.2-0.1,0.3c-0.1,0.1-0.2,0.1-0.3,0.1s-0.2,0-0.3-0.1c-0.1-0.1-0.1-0.2-0.2-0.3l-0.2-3.4l0.2-9.3
	c0-0.1,0.1-0.2,0.2-0.3s0.2-0.1,0.3-0.1c0.1,0,0.2,0,0.2,0.1c0.1,0.1,0.2,0.2,0.2,0.4L18.6,21.4z M34.7,21.1c0,1.1-0.4,2.1-1.2,2.9
	s-1.8,1.2-2.9,1.2H19.2c-0.1,0-0.2-0.1-0.3-0.2s-0.1-0.2-0.1-0.3V11.7c0-0.2,0.1-0.4,0.4-0.5c0.8-0.3,1.7-0.5,2.6-0.5
	c1.9,0,3.5,0.6,4.9,1.9c1.4,1.3,2.2,2.8,2.3,4.7c0.5-0.2,1.1-0.3,1.6-0.3c1.1,0,2.1,0.4,2.9,1.2C34.3,19,34.7,20,34.7,21.1z"/>
<path id="instagram" d="M22,13.9c-1.1-1.1-2.4-1.7-4-1.7c-1.6,0-3,0.6-4.1,1.7c-1.1,1.1-1.6,2.4-1.7,4.1c0,1.6,0.5,3,1.7,4.1
	c1.1,1.1,2.5,1.6,4.1,1.7c1.6,0,2.9-0.5,4-1.7c1.1-1.1,1.7-2.5,1.7-4.1C23.7,16.4,23.1,15.1,22,13.9z M20.6,20.6
	c-0.7,0.7-1.6,1.1-2.6,1.1c-1,0-1.9-0.4-2.6-1.1c-0.7-0.7-1.1-1.6-1.1-2.6c0-1,0.4-1.9,1.1-2.6c0.7-0.7,1.6-1.1,2.6-1.1
	s1.9,0.4,2.6,1.1c0.7,0.7,1.1,1.6,1.1,2.6C21.7,19,21.4,19.9,20.6,20.6z M25.3,12c0,0.4-0.1,0.7-0.4,0.9c-0.3,0.3-0.6,0.4-1,0.4
	c-0.4,0-0.7-0.1-0.9-0.4c-0.2-0.3-0.4-0.6-0.4-0.9c0-0.4,0.1-0.7,0.4-0.9c0.3-0.3,0.6-0.4,0.9-0.4s0.7,0.1,1,0.4
	C25.2,11.4,25.4,11.7,25.3,12z M29.1,13.4c-0.1-2-0.7-3.6-1.8-4.7c-1.1-1.1-2.6-1.7-4.7-1.8c-0.8-0.1-2.4-0.1-4.6-0.1
	c-2.2,0-3.8,0-4.6,0.1c-2,0.1-3.6,0.7-4.7,1.8S7,11.4,6.9,13.4c-0.1,0.8-0.1,2.4-0.1,4.6c0,2.2,0,3.8,0.1,4.6c0.1,2,0.7,3.6,1.8,4.7
	c1.1,1.1,2.7,1.7,4.7,1.8c0.9,0.1,2.4,0.1,4.6,0.1c2.2,0,3.7,0,4.6-0.1c2-0.1,3.5-0.7,4.7-1.8c1.1-1.1,1.7-2.7,1.8-4.7
	c0.1-0.8,0.1-2.4,0.1-4.6C29.1,15.8,29.1,14.2,29.1,13.4z M27.2,22.1c-0.1,1.7-0.4,2.8-1.3,3.8c-0.9,0.9-2.3,1.2-3.9,1.3
	c-0.7,0-2,0.1-3.9,0.1c-1.9,0-3.2,0-3.9-0.1c-1.7-0.1-3-0.4-4-1.3c-0.9-0.9-1.2-2.2-1.3-4c0-0.7-0.1-2-0.1-3.9c0-1.9,0-3.2,0.1-3.9
	c0.1-1.7,0.3-3,1.3-4c0.9-0.9,2.3-1.3,4-1.4c0.7,0,2-0.1,3.9-0.1c1.9,0,3.2,0,3.9,0.1c1.7,0.1,3,0.5,3.9,1.4
	c0.9,0.9,1.3,2.4,1.3,4.1c0,0.7,0.1,2,0.1,3.9C27.3,20,27.2,21.3,27.2,22.1z"/>
</svg>
